<svg xmlns="http://www.w3.org/2000/svg" width="346" height="461" viewBox="0 0 346 461">
  <defs>
    <linearGradient id="bg" x1="0" y1="0" x2="1" y2="1">
      <stop offset="0" stop-color="#1f2933"/>
      <stop offset=".45" stop-color="#8ea0a8"/>
      <stop offset="1" stop-color="#f7f4ed"/>
    </linearGradient>
    <filter id="grain">
      <feTurbulence type="fractalNoise" baseFrequency=".76" numOctaves="3" seed="43"/>
      <feColorMatrix type="saturate" values="0"/>
      <feComponentTransfer>
        <feFuncA type="table" tableValues="0 .17"/>
      </feComponentTransfer>
    </filter>
  </defs>
  <rect width="346" height="461" fill="#fbfaf6"/>
  <rect x="16" y="16" width="314" height="355" rx="6" fill="url(#bg)"/>
  <path d="M16 86H330M16 156H330M16 226H330M16 296H330M86 16V371M156 16V371M226 16V371M296 16V371" stroke="#ffffff" stroke-opacity=".2" stroke-width="1"/>
  <rect x="16" y="16" width="314" height="355" rx="6" fill="#000000" opacity=".12"/>
  <rect x="16" y="16" width="314" height="355" rx="6" filter="url(#grain)" opacity=".55"/>
  <ellipse cx="176" cy="190" rx="96" ry="112" fill="#f7f4ed" opacity=".14"/>
  <path d="M115 290C124 229 144 154 173 89C204 154 224 228 232 290C195 305 153 305 115 290Z" fill="#1f2933" opacity=".28"/>
  <path d="M126 284C135 225 151 170 173 116C195 170 211 225 220 284" fill="none" stroke="#ffffff" stroke-width="8" stroke-linecap="round" opacity=".24"/>
  <text x="173" y="204" text-anchor="middle" font-family="Georgia, 'Times New Roman', serif" font-size="50" fill="#ffffff" opacity=".95">3D Fashion</text>
  <text x="173" y="244" text-anchor="middle" font-family="Arial, sans-serif" font-size="13" letter-spacing="3" fill="#ffffff" opacity=".82">3D / FASHION / MOTION</text>
  <rect x="16" y="392" width="314" height="1" fill="#111111" opacity=".14"/>
  <text x="24" y="415" font-family="Arial, sans-serif" font-size="17" fill="#151515">3D Fashion</text>
  <text x="24" y="439" font-family="Arial, sans-serif" font-size="13" fill="#5f5f5f">Fashion Visualization, Motion</text>
</svg>
