<svg xmlns="http://www.w3.org/2000/svg" width="346" height="461" viewBox="0 0 346 461">
  <defs>
    <linearGradient id="bg" x1="0" y1="0" x2="1" y2="1">
      <stop offset="0" stop-color="#efe7d0"/>
      <stop offset=".46" stop-color="#cf6f8f"/>
      <stop offset="1" stop-color="#2f5f73"/>
    </linearGradient>
    <filter id="grain">
      <feTurbulence type="fractalNoise" baseFrequency=".8" numOctaves="3" seed="31"/>
      <feColorMatrix type="saturate" values="0"/>
      <feComponentTransfer>
        <feFuncA type="table" tableValues="0 .18"/>
      </feComponentTransfer>
    </filter>
  </defs>
  <rect width="346" height="461" fill="#fbfaf6"/>
  <rect x="16" y="16" width="314" height="355" rx="6" fill="url(#bg)"/>
  <path d="M16 86H330M16 156H330M16 226H330M16 296H330M86 16V371M156 16V371M226 16V371M296 16V371" stroke="#ffffff" stroke-opacity=".2" stroke-width="1"/>
  <rect x="16" y="16" width="314" height="355" rx="6" fill="#000000" opacity=".08"/>
  <rect x="16" y="16" width="314" height="355" rx="6" filter="url(#grain)" opacity=".55"/>
  <path d="M82 292C121 226 153 272 187 207C215 153 250 165 285 103" fill="none" stroke="#fff8ed" stroke-width="20" stroke-linecap="round" opacity=".2"/>
  <path d="M62 114C111 79 143 103 178 72C212 42 254 58 295 34" fill="none" stroke="#2f5f73" stroke-width="15" stroke-linecap="round" opacity=".18"/>
  <text x="173" y="208" text-anchor="middle" font-family="Georgia, 'Times New Roman', serif" font-size="61" fill="#ffffff" opacity=".94">Blessie</text>
  <text x="173" y="244" text-anchor="middle" font-family="Arial, sans-serif" font-size="13" letter-spacing="3" fill="#ffffff" opacity=".82">APP / ARTWORK / DIRECTION</text>
  <rect x="16" y="392" width="314" height="1" fill="#111111" opacity=".14"/>
  <text x="24" y="415" font-family="Arial, sans-serif" font-size="17" fill="#151515">Blessie</text>
  <text x="24" y="439" font-family="Arial, sans-serif" font-size="13" fill="#5f5f5f">Creative Direction, App Design</text>
</svg>
