<svg xmlns="http://www.w3.org/2000/svg" width="346" height="461" viewBox="0 0 346 461">
  <defs>
    <linearGradient id="bg" x1="0" y1="0" x2="1" y2="1">
      <stop offset="0" stop-color="#0f3b35"/>
      <stop offset=".52" stop-color="#5fb6a5"/>
      <stop offset="1" stop-color="#f2efe4"/>
    </linearGradient>
    <filter id="grain">
      <feTurbulence type="fractalNoise" baseFrequency=".85" numOctaves="3" seed="12"/>
      <feColorMatrix type="saturate" values="0"/>
      <feComponentTransfer>
        <feFuncA type="table" tableValues="0 .18"/>
      </feComponentTransfer>
    </filter>
  </defs>
  <rect width="346" height="461" fill="#fbfaf6"/>
  <rect x="16" y="16" width="314" height="355" rx="6" fill="url(#bg)"/>
  <path d="M16 86H330M16 156H330M16 226H330M16 296H330M86 16V371M156 16V371M226 16V371M296 16V371" stroke="#ffffff" stroke-opacity=".22" stroke-width="1"/>
  <rect x="16" y="16" width="314" height="355" rx="6" fill="#000000" opacity=".08"/>
  <rect x="16" y="16" width="314" height="355" rx="6" filter="url(#grain)" opacity=".55"/>
  <circle cx="260" cy="83" r="46" fill="#f2efe4" opacity=".18"/>
  <circle cx="88" cy="303" r="64" fill="#0f3b35" opacity=".24"/>
  <text x="173" y="208" text-anchor="middle" font-family="Georgia, 'Times New Roman', serif" font-size="64" fill="#ffffff" opacity=".94">Eknoc</text>
  <text x="173" y="244" text-anchor="middle" font-family="Arial, sans-serif" font-size="13" letter-spacing="3" fill="#ffffff" opacity=".82">WEB / APP / BRAND</text>
  <rect x="16" y="392" width="314" height="1" fill="#111111" opacity=".14"/>
  <text x="24" y="415" font-family="Arial, sans-serif" font-size="17" fill="#151515">Eknoc</text>
  <text x="24" y="439" font-family="Arial, sans-serif" font-size="13" fill="#5f5f5f">Web Design, App Interface, Brand System</text>
</svg>
