<svg xmlns="http://www.w3.org/2000/svg" width="346" height="461" viewBox="0 0 346 461">
  <defs>
    <linearGradient id="bg" x1="0" y1="0" x2="1" y2="1">
      <stop offset="0" stop-color="#151515"/>
      <stop offset=".48" stop-color="#6b63ff"/>
      <stop offset="1" stop-color="#f5d56f"/>
    </linearGradient>
    <filter id="grain">
      <feTurbulence type="fractalNoise" baseFrequency=".72" numOctaves="3" seed="21"/>
      <feColorMatrix type="saturate" values="0"/>
      <feComponentTransfer>
        <feFuncA type="table" tableValues="0 .2"/>
      </feComponentTransfer>
    </filter>
  </defs>
  <rect width="346" height="461" fill="#fbfaf6"/>
  <rect x="16" y="16" width="314" height="355" rx="6" fill="url(#bg)"/>
  <path d="M16 86H330M16 156H330M16 226H330M16 296H330M86 16V371M156 16V371M226 16V371M296 16V371" stroke="#ffffff" stroke-opacity=".2" stroke-width="1"/>
  <rect x="16" y="16" width="314" height="355" rx="6" fill="#000000" opacity=".12"/>
  <rect x="16" y="16" width="314" height="355" rx="6" filter="url(#grain)" opacity=".58"/>
  <rect x="54" y="70" width="238" height="238" rx="24" fill="#151515" opacity=".22"/>
  <rect x="77" y="93" width="192" height="192" rx="18" fill="#f5d56f" opacity=".14"/>
  <text x="173" y="206" text-anchor="middle" font-family="Georgia, 'Times New Roman', serif" font-size="52" fill="#ffffff" opacity=".95">Wemplate</text>
  <text x="173" y="244" text-anchor="middle" font-family="Arial, sans-serif" font-size="13" letter-spacing="3" fill="#ffffff" opacity=".82">TEMPLATE / WEB / IDENTITY</text>
  <rect x="16" y="392" width="314" height="1" fill="#111111" opacity=".14"/>
  <text x="24" y="415" font-family="Arial, sans-serif" font-size="17" fill="#151515">Wemplate</text>
  <text x="24" y="439" font-family="Arial, sans-serif" font-size="13" fill="#5f5f5f">Template System, Web Experience</text>
</svg>
